<svg width="228" height="195" viewBox="0 0 228 195" fill="none" xmlns="http://www.w3.org/2000/svg">
<g filter="url(#filter0_i_14_100)">
<path d="M228 62.9836C228 134.094 122.357 191.653 117.858 194.03C116.672 194.667 115.346 195 114 195C112.654 195 111.328 194.667 110.142 194.03C105.643 191.653 0 134.094 0 62.9836C0.0188582 46.2851 6.67369 30.2759 18.5045 18.4683C30.3353 6.66062 46.3759 0.0188213 63.1071 0C84.1259 0 102.529 9.02088 114 24.269C125.471 9.02088 143.874 0 164.893 0C181.624 0.0188213 197.665 6.66062 209.496 18.4683C221.326 30.2759 227.981 46.2851 228 62.9836Z" fill="#ABEDD8"/>
</g>
<g filter="url(#filter1_i_14_100)">
<path d="M197 98.865C197 150.648 120.084 192.563 116.809 194.294C115.945 194.757 114.98 195 114 195C113.02 195 112.055 194.757 111.191 194.294C107.916 192.563 31 150.648 31 98.865C31.0137 86.705 35.8589 75.0471 44.4726 66.4487C53.0862 57.8503 64.7649 53.0137 76.9464 53C92.2496 53 105.648 59.569 114 70.6728C122.352 59.569 135.75 53 151.054 53C163.235 53.0137 174.914 57.8503 183.527 66.4487C192.141 75.0471 196.986 86.705 197 98.865Z" fill="#4F796C"/>
</g>
<defs>
<filter id="filter0_i_14_100" x="0" y="0" width="228" height="199" filterUnits="userSpaceOnUse" color-interpolation-filters="sRGB">
<feFlood flood-opacity="0" result="BackgroundImageFix"/>
<feBlend mode="normal" in="SourceGraphic" in2="BackgroundImageFix" result="shape"/>
<feColorMatrix in="SourceAlpha" type="matrix" values="0 0 0 0 0 0 0 0 0 0 0 0 0 0 0 0 0 0 127 0" result="hardAlpha"/>
<feOffset dy="4"/>
<feGaussianBlur stdDeviation="10.5"/>
<feComposite in2="hardAlpha" operator="arithmetic" k2="-1" k3="1"/>
<feColorMatrix type="matrix" values="0 0 0 0 0 0 0 0 0 0 0 0 0 0 0 0 0 0 0.25 0"/>
<feBlend mode="normal" in2="shape" result="effect1_innerShadow_14_100"/>
</filter>
<filter id="filter1_i_14_100" x="31" y="53" width="166" height="158" filterUnits="userSpaceOnUse" color-interpolation-filters="sRGB">
<feFlood flood-opacity="0" result="BackgroundImageFix"/>
<feBlend mode="normal" in="SourceGraphic" in2="BackgroundImageFix" result="shape"/>
<feColorMatrix in="SourceAlpha" type="matrix" values="0 0 0 0 0 0 0 0 0 0 0 0 0 0 0 0 0 0 127 0" result="hardAlpha"/>
<feOffset dy="16"/>
<feGaussianBlur stdDeviation="12"/>
<feComposite in2="hardAlpha" operator="arithmetic" k2="-1" k3="1"/>
<feColorMatrix type="matrix" values="0 0 0 0 0 0 0 0 0 0 0 0 0 0 0 0 0 0 0.25 0"/>
<feBlend mode="normal" in2="shape" result="effect1_innerShadow_14_100"/>
</filter>
</defs>
</svg>
